HIERARCHY
ROOT reference
{
  OFFSET -65.3212 -1.93545 -120.338
  CHANNELS 6 Xposition Yposition Zposition Zrotation Xrotation Yrotation
  JOINT Hips
  {
    OFFSET 0 78.7191 0
    CHANNELS 3 Zrotation Xrotation Yrotation
    JOINT Chest
    {
      OFFSET 0 8.7983 -4.7612
      CHANNELS 3 Zrotation Xrotation Yrotation
      JOINT Chest2
      {
        OFFSET 0 8.0291 0.4195
        CHANNELS 3 Zrotation Xrotation Yrotation
        JOINT Chest3
        {
          OFFSET 0 9.9351 -2.2114
          CHANNELS 3 Zrotation Xrotation Yrotation
          JOINT Neck
          {
            OFFSET 0 22.3885 -0.4656
            CHANNELS 3 Zrotation Xrotation Yrotation
            JOINT Head
            {
              OFFSET -0.0001 12.643 3.4389
              CHANNELS 3 Zrotation Xrotation Yrotation
              End Site
              {
                OFFSET 0.0001 17.6655 0.5274
              }
            }
          }
          JOINT LeftCollar
          {
            OFFSET 2.2603 21.606 7.4023
            CHANNELS 3 Zrotation Xrotation Yrotation
            JOINT LeftShoulder
            {
              OFFSET 13.5163 -1.1332 -5.0146
              CHANNELS 3 Zrotation Xrotation Yrotation
              JOINT LeftElbow
              {
                OFFSET -0.0995 -28.05 -0.2431
                CHANNELS 3 Zrotation Xrotation Yrotation
                JOINT LeftWrist
                {
                  OFFSET 0.0679 -23.3996 -0.1402
                  CHANNELS 3 Zrotation Xrotation Yrotation
                  JOINT LeftFinger1
                  {
                    OFFSET 0.7932 -9.069 2.5189
                    CHANNELS 3 Zrotation Xrotation Yrotation
                    JOINT LeftFinger11
                    {
                      OFFSET -0.8272 -3.3923 0.5977
                      CHANNELS 3 Zrotation Xrotation Yrotation
                      JOINT LeftFinger12
                      {
                        OFFSET -0.5649 -2.3158 0.4082
                        CHANNELS 3 Zrotation Xrotation Yrotation
                        End Site
                        {
                          OFFSET -0.4919 -1.6479 0.2673
                        }
                      }
                    }
                  }
                  JOINT LeftFinger2
                  {
                    OFFSET 0.9159 -9.2044 0.2193
                    CHANNELS 3 Zrotation Xrotation Yrotation
                    JOINT LeftFinger21
                    {
                      OFFSET 0.0117 -4.1944 -0.0248
                      CHANNELS 3 Zrotation Xrotation Yrotation
                      JOINT LeftFinger22
                      {
                        OFFSET 0.0071 -2.3249 -0.0142
                        CHANNELS 3 Zrotation Xrotation Yrotation
                        End Site
                        {
                          OFFSET -0.1475 -2.0882 0.0028
                        }
                      }
                    }
                  }
                  JOINT LeftFinger3
                  {
                    OFFSET 0.6113 -8.7231 -2.0637
                    CHANNELS 3 Zrotation Xrotation Yrotation
                    JOINT LeftFinger31
                    {
                      OFFSET -0.1927 -3.8059 -0.2383
                      CHANNELS 3 Zrotation Xrotation Yrotation
                      JOINT LeftFinger32
                      {
                        OFFSET -0.1091 -2.1688 -0.1362
                        CHANNELS 3 Zrotation Xrotation Yrotation
                        End Site
                        {
                          OFFSET -0.2358 -1.9176 -0.0906
                        }
                      }
                    }
                  }
                  JOINT LeftFinger4
                  {
                    OFFSET -0.6151 -8.0947 -3.5641
                    CHANNELS 3 Zrotation Xrotation Yrotation
                    JOINT LeftFinger41
                    {
                      OFFSET -0.4882 -2.341 -0.6462
                      CHANNELS 3 Zrotation Xrotation Yrotation
                      JOINT LeftFinger42
                      {
                        OFFSET -0.3575 -1.7167 -0.4742
                        CHANNELS 3 Zrotation Xrotation Yrotation
                        End Site
                        {
                          OFFSET -0.4187 -1.5237 -0.3496
                        }
                      }
                    }
                  }
                  JOINT LeftFinger0
                  {
                    OFFSET -1.42 -1.8761 1.4223
                    CHANNELS 3 Zrotation Xrotation Yrotation
                    JOINT LeftFinger01
                    {
                      OFFSET -1.1471 -3.4929 2.6334
                      CHANNELS 3 Zrotation Xrotation Yrotation
                      JOINT LeftFinger02
                      {
                        OFFSET -0.823 -2.3 1.6571
                        CHANNELS 3 Zrotation Xrotation Yrotation
                        End Site
                        {
                          OFFSET -0.5822 -1.6914 1.1582
                        }
                      }
                    }
                  }
                }
              }
            }
          }
          JOINT RightCollar
          {
            OFFSET -2.2603 21.606 7.4023
            CHANNELS 3 Zrotation Xrotation Yrotation
            JOINT RightShoulder
            {
              OFFSET -13.5187 -1.1334 -5.0155
              CHANNELS 3 Zrotation Xrotation Yrotation
              JOINT RightElbow
              {
                OFFSET 0.0994 -28.0499 -0.2431
                CHANNELS 3 Zrotation Xrotation Yrotation
                JOINT RightWrist
                {
                  OFFSET -0.0679 -23.3996 -0.1402
                  CHANNELS 3 Zrotation Xrotation Yrotation
                  JOINT RightFinger1
                  {
                    OFFSET -0.7932 -9.0691 2.5189
                    CHANNELS 3 Zrotation Xrotation Yrotation
                    JOINT RightFinger11
                    {
                      OFFSET 0.8272 -3.3923 0.5977
                      CHANNELS 3 Zrotation Xrotation Yrotation
                      JOINT RightFinger12
                      {
                        OFFSET 0.565 -2.3158 0.4082
                        CHANNELS 3 Zrotation Xrotation Yrotation
                        End Site
                        {
                          OFFSET 0.4919 -1.6479 0.2673
                        }
                      }
                    }
                  }
                  JOINT RightFinger2
                  {
                    OFFSET -0.916 -9.2044 0.2193
                    CHANNELS 3 Zrotation Xrotation Yrotation
                    JOINT RightFinger21
                    {
                      OFFSET -0.0117 -4.1944 -0.0248
                      CHANNELS 3 Zrotation Xrotation Yrotation
                      JOINT RightFinger22
                      {
                        OFFSET -0.0071 -2.3249 -0.0142
                        CHANNELS 3 Zrotation Xrotation Yrotation
                        End Site
                        {
                          OFFSET 0.1475 -2.0882 0.0028
                        }
                      }
                    }
                  }
                  JOINT RightFinger3
                  {
                    OFFSET -0.6113 -8.7231 -2.0637
                    CHANNELS 3 Zrotation Xrotation Yrotation
                    JOINT RightFinger31
                    {
                      OFFSET 0.1927 -3.8059 -0.2383
                      CHANNELS 3 Zrotation Xrotation Yrotation
                      JOINT RightFinger32
                      {
                        OFFSET 0.1091 -2.1688 -0.1362
                        CHANNELS 3 Zrotation Xrotation Yrotation
                        End Site
                        {
                          OFFSET 0.2358 -1.9176 -0.0906
                        }
                      }
                    }
                  }
                  JOINT RightFinger4
                  {
                    OFFSET 0.6151 -8.0947 -3.564
                    CHANNELS 3 Zrotation Xrotation Yrotation
                    JOINT RightFinger41
                    {
                      OFFSET 0.4882 -2.341 -0.6462
                      CHANNELS 3 Zrotation Xrotation Yrotation
                      JOINT RightFinger42
                      {
                        OFFSET 0.3574 -1.7166 -0.4742
                        CHANNELS 3 Zrotation Xrotation Yrotation
                        End Site
                        {
                          OFFSET 0.4187 -1.5237 -0.3496
                        }
                      }
                    }
                  }
                  JOINT RightFinger0
                  {
                    OFFSET 1.4199 -1.8761 1.4221
                    CHANNELS 3 Zrotation Xrotation Yrotation
                    JOINT RightFinger01
                    {
                      OFFSET 1.1472 -3.4929 2.6336
                      CHANNELS 3 Zrotation Xrotation Yrotation
                      JOINT RightFinger02
                      {
                        OFFSET 0.8229 -2.3 1.6571
                        CHANNELS 3 Zrotation Xrotation Yrotation
                        End Site
                        {
                          OFFSET 0.5822 -1.6914 1.1582
                        }
                      }
                    }
                  }
                }
              }
            }
          }
        }
      }
    }
    JOINT RightHip
    {
      OFFSET -9.412 3.9771 -0.7758
      CHANNELS 3 Zrotation Xrotation Yrotation
      JOINT RightKnee
      {
        OFFSET -0.7531 -40.938 0
        CHANNELS 3 Zrotation Xrotation Yrotation
        JOINT RightAnkle
        {
          OFFSET 0 -40.1986 0
          CHANNELS 3 Zrotation Xrotation Yrotation
          JOINT RightToe
          {
            OFFSET 0 -4.4182 9.239
            CHANNELS 3 Zrotation Xrotation Yrotation
            End Site
            {
              OFFSET 0 0 6.1981
            }
          }
        }
      }
    }
    JOINT LeftHip
    {
      OFFSET 9.4119 3.9773 -0.7758
      CHANNELS 3 Zrotation Xrotation Yrotation
      JOINT LeftKnee
      {
        OFFSET 0.7532 -40.9383 0
        CHANNELS 3 Zrotation Xrotation Yrotation
        JOINT LeftAnkle
        {
          OFFSET 0 -40.1986 0
          CHANNELS 3 Zrotation Xrotation Yrotation
          JOINT LeftToe
          {
            OFFSET 0 -4.4182 9.239
            CHANNELS 3 Zrotation Xrotation Yrotation
            End Site
            {
              OFFSET 0 0 6.1981
            }
          }
        }
      }
    }
  }
}
MOTION
Frames:	6
Frame Time:	0.0333333
-115.595 -1.29696 -94.8904 0 0 -0 -14.7631 7.08776 -41.0642 3.42592 1.06932 -0.989934 6.87153 2.0774 -2.04247 6.87154 2.0774 -2.04249 3.32421 3.10747 10.9695 -4.71155 1.06926 8.543 13.9504 -0.578549 -10.2269 -5.79039 23.1095 6.5486 -1.92066 -29.091 42.2368 9.97126 13.8261 -50.3759 7.37838 -7.62879 0.930373 -0.199397 -2.56542 -1.05153 6.46968 -3.98186 0.571506 9.88936 -6.63159 3.31475 -0.546755 -3.12592 0.525792 8.64795 -5.28497 1.24687 10.3804 -4.6243 1.2572 -0.56092 -3.58081 1.10257 8.68802 -5.79736 1.57639 11.1406 -2.95182 1.09489 -0.0999069 -4.18849 3.27002 8.5001 -5.55495 1.81039 5.17237 5.0165 -3.43772 -2.76406 -0.176465 0.333112 -2.06219 -2.76146 0.522844 5.2106 0.0919937 5.87447 -22.5299 10.0914 -12.3238 4.08239 -26.6811 -32.9243 5.86771 5.71283 38.1516 14.8666 12.4085 2.7254 8.2399 2.79546 -0.334177 11.1083 3.75094 -0.543993 9.73189 4.30666 2.93416 12.7621 4.33448 -0.179893 8.67263 2.95347 -0.0171175 7.69676 2.57579 -0.281657 12.2698 4.76363 0.182914 8.23103 3.19403 0.235699 8.39408 1.47708 -0.778755 10.0278 3.79821 0.521857 8.47152 3.20382 0.484603 -3.4938 13.003 4.58214 0.772713 -0.69271 -0.801309 -3.16679 6.89947 2.37556 22.2415 0.780008 0.794701 -2.55098 0.126041 0.865933 -0.671733 -0.122323 -20.5227 0.817762 5.56776 -0.359359 11.3943 3.85356 -18.0094 -3.35395 49.2507 -0.995437 13.081 -12.0462 -8.80155 -0.196203 1.46644 0.00249478 
-117.544 -1.1289 -93.2107 0 0 -0 -14.9185 6.01799 -40.4629 3.28482 1.23839 -0.485198 6.58225 2.44688 -1.04096 6.58226 2.44688 -1.04095 3.23484 3.19128 9.64491 -4.29003 1.08879 7.62629 13.8482 -0.62015 -10.7335 -4.14494 24.209 7.29759 -1.42036 -28.6141 43.5057 8.08236 13.312 -47.0144 6.48849 -6.0263 0.471152 -0.175977 -2.30295 -0.928285 5.65544 -3.48675 0.475129 8.95691 -5.93878 2.64672 -0.474287 -2.68872 0.480689 7.82992 -4.79823 1.0958 9.45538 -4.28785 1.15718 -0.490553 -3.09308 0.986373 7.87991 -5.2773 1.39985 10.0497 -2.85092 1.07731 -0.0956752 -3.72373 2.96182 7.70956 -5.05297 1.59776 5.09688 5.4578 -3.36162 -2.7641 -0.17653 0.333114 -1.55627 -2.07948 0.403221 5.30152 0.0930847 5.82978 -23.0547 7.98704 -10.8544 3.72754 -27.6146 -33.7862 5.89571 4.86509 38.1403 14.7898 12.3739 2.8062 7.66446 2.60239 -0.297863 10.8584 3.66826 -0.523818 9.55252 4.23538 2.94319 12.3131 4.18366 -0.157196 8.42363 2.86896 -0.0104108 7.45086 2.48242 -0.28476 11.8285 4.59256 0.194013 7.98624 3.09874 0.235327 8.14547 1.38803 -0.793687 9.58695 3.62968 0.512919 8.22942 3.11371 0.481876 -3.62539 13.2759 4.66205 0.772692 -0.692667 -0.801295 -3.11416 6.74721 2.32151 22.1745 3.28929 0.460606 -2.89545 0.0745705 1.13348 0.31703 -2.38925 -21.3445 -0.109305 6.1871 -0.298255 10.4399 -1.82777 -19.5406 -3.56743 53.9172 -0.50724 15.2399 -13.8691 -7.47839 -0.120688 0.902276 0.000911146 
-119.253 -0.916763 -91.3672 0 0 -0 -14.2464 4.34674 -40.5246 2.93011 1.43883 -0.00846268 5.86321 2.87534 -0.0905552 5.86322 2.87534 -0.0905476 3.18063 3.72402 8.72427 -4.25273 0.651056 6.77239 13.5181 -0.628881 -11.1073 -3.41261 25.1577 9.95869 -0.883456 -28.0875 44.9228 6.32038 12.9041 -44.391 5.53429 -4.32925 -0.0115277 -0.151539 -2.01847 -0.798953 4.78247 -2.95363 0.379548 7.95795 -5.19349 1.95547 -0.396416 -2.22132 0.422484 6.95357 -4.27323 0.941432 8.46762 -3.91836 1.05701 -0.41509 -2.57288 0.851139 7.02571 -4.72084 1.21449 8.88887 -2.7278 1.06303 -0.0900215 -3.23177 2.62241 6.82697 -4.49194 1.38166 5.01672 5.92418 -3.27327 -2.7641 -0.176546 0.333138 -1.04908 -1.39861 0.277599 4.88244 0.099794 5.61104 -23.4076 5.30367 -7.71539 3.04995 -28.4949 -35.3286 5.9189 4.45515 37.8293 14.662 12.3187 2.90421 6.97213 2.36955 -0.256706 10.5422 3.56344 -0.498805 9.31385 4.14049 2.95484 11.7583 3.99695 -0.130789 8.10844 2.76192 -0.00241087 7.1396 2.36435 -0.289224 11.2831 4.38099 0.205987 7.67632 2.9781 0.234276 7.83099 1.2756 -0.813097 9.04203 3.42145 0.500087 7.91634 2.99192 0.467397 -3.78066 13.5951 4.75845 0.772724 -0.692664 -0.801281 -3.00025 6.53451 2.24 20.9332 5.81155 0.251191 -3.11035 0.0884331 1.24566 0.16111 -3.99657 -21.5335 -0.276141 6.5129 -0.291688 7.96756 -6.704 -20.828 -3.52905 54.9437 -0.128994 17.5417 -14.1963 -4.35406 -0.200304 1.49713 0.00258726 
-120.794 -0.59211 -89.4749 0 0 -0 -12.8547 2.66183 -41.4677 2.43081 1.64671 0.440458 4.85194 3.3106 0.811116 4.85196 3.31061 0.811126 3.18144 3.75062 8.50607 -4.44519 0.722501 6.35357 13.1944 -0.533549 -10.4338 -2.96728 25.6818 12.4063 -0.400702 -27.3678 46.3203 5.65197 12.7698 -42.8521 4.52698 -2.56597 -0.508119 -0.126135 -1.71517 -0.665724 3.85426 -2.37913 0.283805 6.90581 -4.4056 1.25611 -0.313948 -1.73045 0.35008 6.03063 -3.71653 0.787368 7.43131 -3.51904 0.95927 -0.334502 -2.02815 0.696783 6.11578 -4.12172 1.02132 7.67593 -2.5809 1.05274 -0.0830419 -2.72059 2.25488 5.94716 -3.92767 1.17441 4.93573 6.39044 -3.18419 -2.76414 -0.176539 0.333146 -0.519204 -0.690448 0.140356 4.09748 0.0944692 5.84626 -23.1109 2.05812 -5.77234 2.85148 -29.1958 -35.7284 5.97924 3.74913 37.3572 14.4701 12.2381 3.01676 6.18416 2.10387 -0.213301 10.1617 3.43713 -0.469461 9.01233 4.02051 2.96901 11.1076 3.77761 -0.102129 7.72919 2.63305 0.00643838 6.76519 2.22239 -0.295388 10.6435 4.13264 0.217422 7.30347 2.83293 0.232131 7.45295 1.14074 -0.837134 8.4028 3.17732 0.482513 7.54317 2.84957 0.45467 -3.95427 13.9459 4.87145 0.772705 -0.69271 -0.801274 -2.88671 6.32164 2.15898 18.9269 8.06572 0.0808626 -3.18015 0.00053098 1.22122 -0.380729 -5.43141 -21.1625 -0.498762 7.92874 -0.307082 4.94081 -10.6963 -20.9442 -3.26922 52.1088 -0.00214018 18.1351 -13.1878 -2.90372 -0.342458 2.55857 0.00762554 
-122.328 -0.212074 -87.4756 0 0 -0 -11.2132 0.90225 -42.9482 1.84837 1.86193 0.854089 3.67171 3.75026 1.64893 3.67172 3.75026 1.64892 3.23053 3.64847 8.86645 -4.64346 0.99353 6.16031 12.9366 -0.387819 -9.2156 -2.79555 26.0016 14.2281 0.1212 -26.4782 47.9659 5.92418 12.9793 -43.0459 3.47694 -0.764805 -1.0089 -0.100281 -1.39631 -0.530786 2.9273 -1.80317 0.197431 5.81357 -3.58515 0.562961 -0.227366 -1.22301 0.263012 5.0726 -3.13485 0.636702 6.36043 -3.0933 0.865825 -0.249675 -1.46656 0.523722 5.20848 -3.51963 0.837842 6.42844 -2.40879 1.04652 -0.0742552 -2.19804 1.86261 4.99575 -3.31337 0.963821 4.85391 6.85658 -3.09437 -2.76413 -0.176586 0.333176 0.012285 0.0163822 -0.00342224 3.11432 0.0834629 6.27619 -22.3387 -1.20082 -4.36688 2.78963 -30.1502 -35.7922 6.00235 3.4238 37.2619 14.2012 12.1273 3.14095 5.32174 1.81229 -0.169985 9.7194 3.29 -0.436416 8.64437 3.87396 2.98544 10.3711 3.52885 -0.0726829 7.28822 2.48311 0.0156117 6.32982 2.05743 -0.303659 9.91954 3.85127 0.227008 6.86986 2.66412 0.228476 7.0137 0.984406 -0.866111 7.67902 2.90111 0.459326 7.10917 2.68411 0.438696 -4.14275 14.3129 5.00637 0.7727 -0.692741 -0.801265 -2.74738 6.03189 2.05167 16.4256 10.1696 -0.340865 -3.21445 0.0823296 1.18326 -1.08936 -6.045 -19.5524 0.182486 7.98906 -0.40476 1.63442 -12.7549 -19.752 -1.83558 44.6661 -0.755253 15.2783 -10.8481 -2.9382 -0.484842 3.62004 0.01532 
-123.918 0.0999298 -85.4246 0 0 -0 -9.73628 -0.720809 -44.777 1.30486 2.08376 1.24405 2.56667 4.19484 2.44269 2.56668 4.19485 2.44269 3.30707 3.48003 9.5533 -5.06429 1.42567 6.09197 12.8998 -0.23832 -7.79251 -3.17048 26.0412 15.5878 0.471268 -25.3204 49.3971 6.63399 12.9413 -44.0575 2.39377 1.04587 -1.50372 -0.0742366 -1.06174 -0.394796 1.93155 -1.1906 0.119472 4.69417 -2.74245 -0.109997 -0.137623 -0.702906 0.160664 4.09094 -2.53498 0.492247 5.26893 -2.64468 0.77811 -0.160652 -0.892827 0.331881 4.23844 -2.87394 0.659605 5.16387 -2.21025 1.04379 -0.0635829 -1.66879 1.44739 4.04715 -2.69567 0.76358 4.77131 7.32258 -3.00377 -2.76416 -0.176597 0.333224 0.524168 0.693573 -0.147601 1.47391 0.0661143 6.9283 -20.8587 -4.26601 -3.09504 2.76977 -31.3071 -35.7483 6.03867 2.99873 37.2684 13.8425 11.9814 3.27369 4.40595 1.50186 -0.12877 9.2104 3.12587 -0.397765 8.20644 3.69936 3.00377 9.55872 3.25394 -0.0439391 6.78766 2.31279 0.0246583 5.83566 1.87032 -0.31453 9.12098 3.54068 0.23347 6.37766 2.47251 0.222756 6.51555 0.807515 -0.900339 6.88046 2.5967 0.429707 6.61641 2.49642 0.419046 -4.33243 14.6796 5.14275 0.772668 -0.692787 -0.801226 -2.60867 5.7419 1.94514 13.9536 12.392 0.405729 -3.27316 0.00119242 1.14361 -1.92549 -6.64648 -18.7439 1.443 7.80854 -0.568652 -0.794341 -13.0898 -17.0478 -0.674373 33.3072 -1.09126 12.1569 -7.08238 -1.96048 -0.634838 4.73558 0.0262277 
